<svg t="1650811105586" class="icon" viewBox="0 0 1024 1024" version="1.1" xmlns="http://www.w3.org/2000/svg" p-id="1772" width="200" height="200"><path d="M984 654H734v-284H984a40 40 0 1 0 0-80H734V40a40 40 0 1 0-80 0v250h-284V40a40 40 0 1 0-80 0v250H40a40 40 0 1 0 0 80h250v284H40a40 40 0 1 0 0 80h250V984a40 40 0 1 0 80 0V734h284V984a40 40 0 1 0 80 0V734H984a40 40 0 1 0 0-80z m-614 0v-284h284v284h-284zM110 512a30.04 30.04 0 0 0 30 30 40 40 0 1 1 0 80C79.344 622 30 572.656 30 512S79.344 402 140 402 250 451.344 250 512a40 40 0 1 1-80 0 30.04 30.04 0 0 0-30-30A30.04 30.04 0 0 0 110 512z m660-366c0-60.656 49.344-110 110-110s110 49.344 110 110a40 40 0 1 1-80 0A30.04 30.04 0 0 0 880 116a30.04 30.04 0 0 0-30 30A30.04 30.04 0 0 0 880 176a40 40 0 1 1 0 80c-60.656 0-110-49.344-110-110zM624 512a40 40 0 1 1-80 0 30.04 30.04 0 0 0-30-30A30.04 30.04 0 0 0 484 512a30.04 30.04 0 0 0 30 30 40 40 0 1 1 0 80c-60.656 0-110-49.344-110-110s49.344-110 110-110S624 451.344 624 512z m344.28 336.288L936.568 880l31.712 31.712a40 40 0 0 1-28.28 68.288c-10.24 0-20.48-3.904-28.28-11.712L880 936.568l-31.72 31.72a39.88 39.88 0 0 1-28.28 11.712 40 40 0 0 1-28.28-68.28l31.712-31.72-31.712-31.712a40 40 0 1 1 56.56-56.568l31.72 31.712 31.72-31.72a40 40 0 1 1 56.56 56.576z m-734 0L202.568 880l31.712 31.712a40 40 0 0 1-28.28 68.288c-10.24 0-20.48-3.904-28.28-11.712l-31.72-31.72-31.72 31.72a39.88 39.88 0 0 1-28.28 11.712 40 40 0 0 1-28.28-68.28L89.432 880l-31.712-31.712a40 40 0 1 1 56.56-56.568l31.72 31.712 31.72-31.72a40 40 0 1 1 56.56 56.576zM59.72 177.712l31.712-31.712-31.712-31.712a40 40 0 1 1 56.56-56.568l31.72 31.712 31.72-31.72a40 40 0 0 1 56.56 56.568l-31.712 31.72 31.712 31.712A40 40 0 0 1 208 246c-10.24 0-20.48-3.904-28.28-11.712L148 202.568l-31.72 31.72A39.88 39.88 0 0 1 88 246a40 40 0 0 1-28.28-68.288z" fill="#4A90E2" p-id="1773"></path></svg>
